<?xml version="1.0" encoding="utf-8"?>
<!-- Generator: Adobe Illustrator 24.0.1, SVG Export Plug-In . SVG Version: 6.00 Build 0)  -->
<svg version="1.1" id="Capa_1" xmlns="http://www.w3.org/2000/svg" xmlns:xlink="http://www.w3.org/1999/xlink" x="0px" y="0px"
	 viewBox="0 0 512 512" style="enable-background:new 0 0 512 512;" xml:space="preserve">
<style type="text/css">
	.st0{fill:#FF9B00;}
	.st1{fill:#F6FF19;}
	.st2{fill:#FF6519;}
	.st3{fill:#FFD319;}
</style>
<path class="st0" d="M458,177.8l-40.8-61.2c-3.6-5.4-10.5-8.1-16.8-6c-6.3,1.8-10.8,7.8-10.8,14.4c0,29.4-4.5,58.8-12.9,87.3
	c-7.2-20.7-21-39-39.9-51.3c-33.3-22.2-42.3-65.6-20.1-98.9l26.1-39c3-4.5,3.3-10.5,0.6-15.3C341,3,335.9,0,330.2,0
	c-26.4,0-51.3,5.1-74.4,14.4c-70.5,28.2-121.5,93.5-126.3,173c-4.8-12.9-7.5-26.7-7.5-40.8V87.8c0-6.6-4.5-12.6-10.8-14.4
	c-6.3-2.1-13.2,0.6-16.8,6l-20.1,30.3c-37.2,55.8-56.7,120.6-56.7,187.5c0,118.5,96.3,214.8,214.8,214.8h46.8
	c118.5,0,215.2-96.3,215.2-214.8C494.4,254.6,481.7,213.2,458,177.8z"/>
<path class="st1" d="M268.7,266.3c-2.7-5.1-7.8-7.5-12.9-7.5c-5.1,0-9.9,2.4-12.9,7.5c-62.1,107.7-76.5,121.5-76.5,156.3
	c0,49.2,40.2,89.4,89.4,89.4s89.4-40.2,89.4-89.4C345.2,384.5,319.7,354.8,268.7,266.3z"/>
<path class="st2" d="M494.4,297.2c0,118.5-96.7,214.8-215.2,214.8h-23.4V14.4C278.9,5.1,303.8,0,330.2,0c5.7,0,10.8,3,13.2,7.8
	c2.7,4.8,2.4,10.8-0.6,15.3l-26.1,39c-22.2,33.3-13.2,76.7,20.1,98.9c18.9,12.3,32.7,30.6,39.9,51.3c8.4-28.5,12.9-57.9,12.9-87.3
	c0-6.6,4.5-12.6,10.8-14.4c6.3-2.1,13.2,0.6,16.8,6l40.8,61.2C481.7,213.2,494.4,254.6,494.4,297.2z"/>
<path class="st3" d="M345.2,422.6c0,49.2-40.2,89.4-89.4,89.4V258.8c5.1,0,10.2,2.4,12.9,7.5C319.7,354.8,345.2,384.5,345.2,422.6z"
	/>
</svg>
